HIERARCHY
ROOT Hips
{
	OFFSET -0.179506 -22.333345 2.821913
	CHANNELS 6 Xposition Yposition Zposition Zrotation Yrotation Xrotation 
	JOINT LeftUpLeg
	{
		OFFSET 6.951974 -9.140623 -0.681533
		CHANNELS 3 Zrotation Yrotation Xrotation
		JOINT LeftLeg
		{
			OFFSET 3.427654 -37.519855 -0.449580
			CHANNELS 3 Zrotation Yrotation Xrotation
			JOINT LeftFoot
			{
				OFFSET -1.359570 -39.796059 -4.369333
				CHANNELS 3 Zrotation Yrotation Xrotation
				JOINT LeftToe
				{
					OFFSET 2.635814 -5.579078 11.928840
					CHANNELS 3 Zrotation Yrotation Xrotation
					End Site
					{
						OFFSET 0.000000 0.000000 0.000000
					}
				}
			}
		}
	}
	JOINT RightUpLeg
	{
		OFFSET -6.767048 -9.052170 -0.431982
		CHANNELS 3 Zrotation Yrotation Xrotation
		JOINT RightLeg
		{
			OFFSET -3.829005 -38.256897 -0.885003
			CHANNELS 3 Zrotation Yrotation Xrotation
			JOINT RightFoot
			{
				OFFSET 1.577377 -39.841461 -4.231180
				CHANNELS 3 Zrotation Yrotation Xrotation
				JOINT RightToe
				{
					OFFSET -2.537174 -4.814398 12.334795
					CHANNELS 3 Zrotation Yrotation Xrotation
					End Site
					{
						OFFSET 0.000000 0.000000 0.000000
					}
				}
			}
		}
	}
	JOINT Spine
	{
		OFFSET -0.253288 10.896323 -2.669631
		CHANNELS 3 Zrotation Yrotation Xrotation
		JOINT Spine1
		{
			OFFSET 0.548704 13.518043 0.109247
			CHANNELS 3 Zrotation Yrotation Xrotation
			JOINT Spine2
			{
				OFFSET 0.145701 5.292222 2.542457
				CHANNELS 3 Zrotation Yrotation Xrotation
				JOINT Neck
				{
					OFFSET -0.277840 21.387037 -4.285703
					CHANNELS 3 Zrotation Yrotation Xrotation
					JOINT Head
					{
						OFFSET 0.515184 6.496960 5.134897
						CHANNELS 3 Zrotation Yrotation Xrotation
						End Site
						{
							OFFSET 0.000000 0.000000 0.000000
						}
					}
				}
				JOINT LeftShoulder
				{
					OFFSET 7.884473 12.174932 -3.408961
					CHANNELS 3 Zrotation Yrotation Xrotation
					JOINT LeftArm
					{
						OFFSET 9.097692 3.046888 -0.886815
						CHANNELS 3 Zrotation Yrotation Xrotation
						JOINT LeftForeArm
						{
							OFFSET 25.961220 -1.277207 -2.745643
							CHANNELS 3 Zrotation Yrotation Xrotation
							JOINT LeftHand
							{
								OFFSET 24.923361 0.898606 -0.117091
								CHANNELS 3 Zrotation Yrotation Xrotation
								End Site
								{
									OFFSET 0.000000 0.000000 0.000000
								}
							}
						}
					}
				}
				JOINT RightShoulder
				{
					OFFSET -8.175920 11.883285 -3.861528
					CHANNELS 3 Zrotation Yrotation Xrotation
					JOINT RightArm
					{
						OFFSET -9.601238 3.255117 -0.914307
						CHANNELS 3 Zrotation Yrotation Xrotation
						JOINT RightForeArm
						{
							OFFSET -25.374195 -1.332924 -2.140099
							CHANNELS 3 Zrotation Yrotation Xrotation
							JOINT RightHand
							{
								OFFSET -25.529810 0.777228 -0.555919
								CHANNELS 3 Zrotation Yrotation Xrotation
								End Site
								{
									OFFSET 0.000000 0.000000 0.000000
								}
							}
						}
					}
				}
			}
		}
	}
}
MOTION
Frames: 13
Frame Time: 0.033333
-0.179506 108.558243 2.821913 -178.461665 4.570308 175.350075 3.676717 3.283608 6.720923 -0.236487 -4.639533 -0.305275 -2.474429 7.787820 -6.751340 3.073505 1.266090 1.923570 -1.583302 -0.274441 1.396758 -0.220809 5.558975 6.202795 3.251814 -0.685969 -5.689943 4.011798 -2.130666 0.839402 -1.819581 1.680784 1.968629 2.949803 -5.168883 7.975774 -0.704961 -0.295179 -3.185609 -1.225049 1.495711 5.781101 2.860877 -0.265292 0.645186 -19.053698 -5.530225 3.361393 -57.333192 -12.440129 17.214138 -5.106464 -19.472180 20.048706 -4.052558 -9.408712 9.580282 12.875715 9.638161 -0.037915 60.902180 8.310207 20.796172 4.609227 26.048158 17.926534 5.442252 4.227563 4.956588 
-0.234341 108.561142 2.886153 -178.392649 4.644245 175.391896 3.687151 3.286096 6.708455 -0.185158 -4.695414 -0.431555 -2.477203 7.882494 -6.728509 3.089320 1.264979 1.915933 -1.541400 -0.213239 1.197622 -0.188575 5.554972 6.390737 3.230901 -0.679881 -5.631152 4.054802 -2.140935 0.872691 -1.765525 1.614038 2.080952 2.950419 -5.209765 7.998284 -0.684468 -0.316846 -3.203503 -1.252432 1.330274 5.813150 2.909246 -0.323273 0.656715 -18.968997 -5.670819 3.421223 -57.487352 -12.584377 17.269698 -4.991967 -19.279701 19.823845 -3.861558 -9.498702 9.498061 12.752840 9.699740 -0.129219 60.944123 8.333470 20.814267 4.548586 26.196759 17.854436 5.351158 4.296456 4.712792 
-0.328206 108.565460 2.885182 -178.304244 4.771666 175.500588 3.695598 3.279949 6.632494 -0.165825 -4.724935 -0.474292 -2.477049 8.003097 -6.755477 3.108800 1.266379 1.904425 -1.506273 -0.116554 0.981380 -0.169261 5.624730 6.548003 3.223557 -0.641329 -5.550004 4.111692 -2.157899 0.896039 -1.714527 1.568986 2.097168 2.939455 -5.275504 8.005905 -0.652754 -0.343616 -3.218260 -1.309412 1.243963 5.851125 2.973787 -0.357511 0.636099 -18.930624 -5.770024 3.499541 -57.666546 -12.616826 17.305051 -4.845012 -19.155807 19.646891 -3.791427 -9.511270 9.496158 12.576062 9.757666 -0.192089 61.005796 8.290675 20.774481 4.524524 26.350716 17.845680 5.319734 4.308044 4.464324 
-0.389854 108.570602 2.877120 -178.254809 4.823215 175.583148 3.698762 3.274111 6.574985 -0.161391 -4.706838 -0.505692 -2.530988 8.038195 -6.786102 3.159426 1.260739 1.891790 -1.483691 -0.032997 0.802757 -0.161937 5.667566 6.715557 3.183047 -0.637312 -5.506172 4.180844 -2.173524 0.922205 -1.669784 1.535595 2.093602 2.918357 -5.343888 8.046618 -0.632141 -0.366014 -3.262867 -1.342104 1.193690 5.891116 3.042113 -0.353555 0.615846 -18.844225 -5.875430 3.562487 -57.849275 -12.654378 17.342225 -4.744682 -19.005689 19.552446 -3.723336 -9.496389 9.464161 12.397647 9.811930 -0.217685 61.117866 8.276826 20.747378 4.500235 26.410603 17.865180 5.311129 4.294089 4.326670 
-0.503058 108.575272 2.869790 -178.146996 4.873670 175.634262 3.706629 3.232589 6.501966 -0.126536 -4.743238 -0.439530 -2.555628 8.140968 -6.898784 3.214057 1.249931 1.874482 -1.413253 0.074465 0.645580 -0.180374 5.782921 6.913411 3.145549 -0.666744 -5.431304 4.239682 -2.187463 0.935605 -1.640122 1.491132 2.117693 2.897221 -5.415410 8.057974 -0.608890 -0.395150 -3.255536 -1.382070 1.184982 5.905377 3.083893 -0.327521 0.595356 -18.742063 -5.990446 3.604783 -58.085842 -12.725590 17.390995 -4.633197 -18.822896 19.535693 -3.720162 -9.469694 9.465802 12.194137 9.874696 -0.254297 61.238481 8.277188 20.759473 4.427580 26.446572 17.956102 5.354936 4.277998 4.200034 
-0.609386 108.578857 2.855784 -178.069163 4.889478 175.691523 3.705594 3.229649 6.439031 -0.111773 -4.758734 -0.413098 -2.574688 8.176659 -6.971822 3.249295 1.238974 1.858851 -1.382261 0.145668 0.509705 -0.184702 5.860020 7.071248 3.105537 -0.696077 -5.372852 4.282116 -2.203171 0.940625 -1.626819 1.436791 2.161974 2.883602 -5.485308 8.061956 -0.602187 -0.423203 -3.233120 -1.430176 1.215139 5.928859 3.096258 -0.248465 0.598269 -18.686522 -6.110748 3.646796 -58.247185 -12.795000 17.395587 -4.545195 -18.681852 19.486750 -3.750273 -9.428924 9.432920 12.101158 9.921737 -0.275495 61.265559 8.274320 20.769128 4.345441 26.526465 18.008396 5.436939 4.266586 4.148752 
-0.719452 108.582184 2.917907 -177.991190 4.899878 175.684820 3.685920 3.200982 6.455106 -0.056318 -4.740011 -0.505309 -2.582105 8.220864 -6.996778 3.255136 1.252421 1.861920 -1.329958 0.308828 0.390277 -0.208638 5.927045 7.242346 3.042332 -0.776100 -5.293952 4.312427 -2.222526 0.949934 -1.629653 1.369343 2.170755 2.868726 -5.568928 8.078130 -0.602920 -0.462232 -3.202308 -1.434930 1.243913 6.003560 3.094496 -0.214505 0.649601 -18.601776 -6.239499 3.670704 -58.420156 -12.877559 17.398208 -4.409401 -18.564738 19.459389 -3.909746 -9.443972 9.361789 12.002639 9.965394 -0.342457 61.412861 8.309322 20.778975 4.079374 26.518709 17.930727 5.622237 4.341962 4.010375 
-0.833063 108.586487 2.987383 -177.941583 4.880480 175.674530 3.672370 3.208193 6.446452 -0.063252 -4.640959 -0.561783 -2.619822 8.166360 -7.014347 3.328300 1.250199 1.862989 -1.304592 0.452726 0.215411 -0.231566 5.966559 7.520247 2.954347 -0.854255 -5.253753 4.356207 -2.223961 0.962551 -1.656734 1.309646 2.146652 2.866001 -5.672932 8.094716 -0.626337 -0.494101 -3.141344 -1.365723 1.355582 6.018455 3.077158 -0.148429 0.740621 -18.517362 -6.362527 3.710602 -58.565011 -13.001773 17.352310 -4.306573 -18.459322 19.504135 -4.011526 -9.434285 9.529182 11.980611 9.978364 -0.356580 61.487506 8.436053 20.786026 3.852366 26.432028 17.871321 5.764239 4.335919 4.058049 
-0.817933 108.592789 3.036607 -177.959977 4.862084 175.701549 3.688153 3.183753 6.366149 -0.110810 -4.673878 -0.532863 -2.674309 8.176365 -6.988011 3.393112 1.247001 1.832457 -1.252436 0.583888 -0.008053 -0.258944 6.101985 7.839327 2.832491 -1.036789 -5.306429 4.369527 -2.218421 0.973266 -1.675997 1.248572 2.084989 2.852721 -5.732222 8.071139 -0.657094 -0.533455 -3.049475 -1.331550 1.416095 6.087707 3.033501 -0.200717 0.885437 -18.386140 -6.419950 3.727757 -58.667624 -13.130215 17.361127 -4.192492 -18.277429 19.473145 -4.053846 -9.406180 9.643255 11.976647 9.992039 -0.425229 61.671391 8.541097 20.782927 3.671233 26.194004 17.666490 5.830411 4.367385 4.001810 
-0.773160 108.602493 3.046216 -177.975405 4.878575 175.740854 3.715191 3.126113 6.283875 -0.142701 -4.775353 -0.467226 -2.680144 8.223805 -6.924254 3.471146 1.237097 1.842166 -1.161922 0.728212 -0.270883 -0.302872 6.154246 8.258664 2.705570 -1.187950 -5.411489 4.365331 -2.215521 0.998288 -1.708427 1.215591 2.113784 2.849236 -5.755424 8.023772 -0.662137 -0.553047 -2.998334 -1.328100 1.485111 6.131661 2.969785 -0.227679 1.020091 -18.366319 -6.370654 3.764669 -58.688996 -13.215353 17.291654 -4.033735 -18.239700 19.372754 -4.083307 -9.292162 9.746913 12.114522 9.969468 -0.414998 61.664255 8.568891 20.684629 3.555797 26.078812 17.566967 5.972373 4.321927 4.067606 
-0.758681 108.614227 3.101487 -177.998413 4.839350 175.738459 3.694838 3.000798 6.138827 -0.154168 -5.042292 -0.278503 -2.665535 8.384996 -6.904820 3.589035 1.215412 1.832700 -1.086268 0.921957 -0.571410 -0.333139 6.391774 8.788923 2.526536 -1.456551 -5.483902 4.347463 -2.193842 1.023122 -1.758735 1.183973 2.199592 2.849680 -5.819100 7.935469 -0.672743 -0.558790 -2.914436 -1.401692 1.534339 6.142570 2.895050 -0.274249 1.120515 -18.351072 -6.371026 3.819044 -58.709613 -13.315214 17.177380 -3.835477 -18.286236 19.280755 -4.077120 -9.134446 9.894787 12.241141 9.930822 -0.400162 61.649230 8.606867 20.535042 3.343914 25.940637 17.413518 6.176756 4.165183 4.144530 
-0.644780 108.626953 3.141929 -178.081290 4.780936 175.738635 3.690366 2.876404 5.965526 -0.194316 -5.363980 -0.034351 -2.644955 8.549772 -6.828456 3.660853 1.193055 1.803673 -0.991290 1.088368 -0.732995 -0.393097 6.705434 9.089066 2.302958 -1.826566 -5.594647 4.316169 -2.165451 1.019977 -1.801115 1.171493 2.237771 2.824334 -5.831744 7.862590 -0.693351 -0.575372 -2.843120 -1.472921 1.519204 6.137087 2.866090 -0.258748 1.223864 -18.278087 -6.319359 3.833063 -58.725032 -13.424756 17.119982 -3.621262 -18.270153 19.047958 -4.094543 -9.046252 9.982532 12.347100 9.864002 -0.373534 61.709386 8.593408 20.431616 3.118715 25.774372 17.052355 6.354897 4.068905 4.138604 
-0.359174 108.638245 3.099887 -178.194977 4.605290 175.785017 3.774023 2.730864 5.734464 -0.251023 -5.628058 0.314384 -2.708058 8.606220 -6.758379 3.638792 1.143099 1.798141 -0.872469 1.129084 -0.666214 -0.430095 6.897818 9.017144 2.135904 -2.113448 -5.783766 4.305527 -2.154691 1.001456 -1.827361 1.184322 2.263304 2.793325 -5.773009 7.816547 -0.723942 -0.586147 -2.802845 -1.585430 1.548656 6.170948 2.818822 -0.134898 1.363975 -18.192783 -6.115232 3.759869 -58.685988 -13.525411 17.056916 -3.376486 -18.264720 18.603822 -4.129792 -9.040149 9.999075 12.484435 9.676024 -0.359398 61.766484 8.400758 20.360425 2.975481 25.735697 16.606808 6.531329 4.052263 4.086702 
